<svg xmlns="http://www.w3.org/2000/svg" width="840" height="200" viewBox="0 0 840 200" role="img" aria-label="Market prices over the past month"><rect x="0.5" y="0.5" width="839" height="199" rx="12" fill="#1a1b27" stroke="#2a2e45"/><text x="18" y="26" font-family="'Segoe UI', Ubuntu, 'Helvetica Neue', Arial, sans-serif" font-size="11" letter-spacing="1.5" fill="#565f89">MARKETS · PAST MONTH</text><text x="822" y="26" text-anchor="end" font-family="'Segoe UI', Ubuntu, 'Helvetica Neue', Arial, sans-serif" font-size="11" fill="#565f89">updated Jul 02, 2026 · 01:31 UTC</text><line x1="18" y1="38" x2="822" y2="38" stroke="#2a2e45"/><text x="118.5" y="64" text-anchor="middle" font-family="'Segoe UI', Ubuntu, 'Helvetica Neue', Arial, sans-serif" font-size="14.5" font-weight="600" fill="#c0caf5">S&amp;P 500</text><path d="M36.0,134.0 L36.0,82.0 L44.2,89.5 L52.5,85.4 L60.8,112.3 L69.0,109.4 L77.2,111.9 L85.5,128.0 L93.8,110.9 L102.0,105.9 L110.2,89.4 L118.5,95.2 L126.8,107.5 L135.0,96.7 L143.2,100.4 L151.5,114.8 L159.8,115.8 L168.0,115.9 L176.2,116.3 L184.5,104.7 L192.8,96.8 L201.0,99.0 L201.0,134.0 Z" fill="#f7768e" fill-opacity="0.12"/><polyline points="36.0,82.0 44.2,89.5 52.5,85.4 60.8,112.3 69.0,109.4 77.2,111.9 85.5,128.0 93.8,110.9 102.0,105.9 110.2,89.4 118.5,95.2 126.8,107.5 135.0,96.7 143.2,100.4 151.5,114.8 159.8,115.8 168.0,115.9 176.2,116.3 184.5,104.7 192.8,96.8 201.0,99.0" fill="none" stroke="#f7768e" stroke-width="2" stroke-linecap="round" stroke-linejoin="round"/><circle cx="201.0" cy="99.0" r="2.6" fill="#f7768e"/><text x="118.5" y="182" text-anchor="middle" font-family="'Segoe UI', Ubuntu, 'Helvetica Neue', Arial, sans-serif" font-size="12.5" font-weight="600" fill="#f7768e">▼ 1.7%</text><text x="118.5" y="162" text-anchor="middle" font-family="'Segoe UI', Ubuntu, 'Helvetica Neue', Arial, sans-serif" font-size="19" font-weight="700" fill="#c0caf5">7,483</text><line x1="219.0" y1="52" x2="219.0" y2="186" stroke="#2a2e45"/><text x="319.5" y="64" text-anchor="middle" font-family="'Segoe UI', Ubuntu, 'Helvetica Neue', Arial, sans-serif" font-size="14.5" font-weight="600" fill="#c0caf5">NASDAQ</text><path d="M237.0,134.0 L237.0,82.0 L245.2,87.7 L253.5,88.3 L261.8,115.1 L270.0,109.8 L278.2,115.8 L286.5,128.0 L294.8,112.7 L303.0,110.8 L311.2,91.8 L319.5,99.2 L327.8,107.6 L336.0,95.8 L344.2,104.2 L352.5,118.0 L360.8,120.7 L369.0,123.5 L377.2,124.9 L385.5,112.4 L393.8,103.0 L402.0,107.2 L402.0,134.0 Z" fill="#f7768e" fill-opacity="0.12"/><polyline points="237.0,82.0 245.2,87.7 253.5,88.3 261.8,115.1 270.0,109.8 278.2,115.8 286.5,128.0 294.8,112.7 303.0,110.8 311.2,91.8 319.5,99.2 327.8,107.6 336.0,95.8 344.2,104.2 352.5,118.0 360.8,120.7 369.0,123.5 377.2,124.9 385.5,112.4 393.8,103.0 402.0,107.2" fill="none" stroke="#f7768e" stroke-width="2" stroke-linecap="round" stroke-linejoin="round"/><circle cx="402.0" cy="107.2" r="2.6" fill="#f7768e"/><text x="319.5" y="182" text-anchor="middle" font-family="'Segoe UI', Ubuntu, 'Helvetica Neue', Arial, sans-serif" font-size="12.5" font-weight="600" fill="#f7768e">▼ 3.9%</text><text x="319.5" y="162" text-anchor="middle" font-family="'Segoe UI', Ubuntu, 'Helvetica Neue', Arial, sans-serif" font-size="19" font-weight="700" fill="#c0caf5">26,040</text><line x1="420.0" y1="52" x2="420.0" y2="186" stroke="#2a2e45"/><text x="520.5" y="64" text-anchor="middle" font-family="'Segoe UI', Ubuntu, 'Helvetica Neue', Arial, sans-serif" font-size="14.5" font-weight="600" fill="#c0caf5">Bitcoin</text><path d="M438.0,134.0 L438.0,82.0 L443.7,97.2 L449.4,98.4 L455.1,114.6 L460.8,115.0 L466.4,101.6 L472.1,102.4 L477.8,110.6 L483.5,111.7 L489.2,99.7 L494.9,99.8 L500.6,94.9 L506.3,87.6 L512.0,84.3 L517.7,88.2 L523.3,94.9 L529.0,103.5 L534.7,99.9 L540.4,95.9 L546.1,101.6 L551.8,97.5 L557.5,104.8 L563.2,114.2 L568.9,121.4 L574.6,119.8 L580.2,120.2 L585.9,122.5 L591.6,119.1 L597.3,128.0 L603.0,119.4 L603.0,134.0 Z" fill="#f7768e" fill-opacity="0.12"/><polyline points="438.0,82.0 443.7,97.2 449.4,98.4 455.1,114.6 460.8,115.0 466.4,101.6 472.1,102.4 477.8,110.6 483.5,111.7 489.2,99.7 494.9,99.8 500.6,94.9 506.3,87.6 512.0,84.3 517.7,88.2 523.3,94.9 529.0,103.5 534.7,99.9 540.4,95.9 546.1,101.6 551.8,97.5 557.5,104.8 563.2,114.2 568.9,121.4 574.6,119.8 580.2,120.2 585.9,122.5 591.6,119.1 597.3,128.0 603.0,119.4" fill="none" stroke="#f7768e" stroke-width="2" stroke-linecap="round" stroke-linejoin="round"/><circle cx="603.0" cy="119.4" r="2.6" fill="#f7768e"/><text x="520.5" y="182" text-anchor="middle" font-family="'Segoe UI', Ubuntu, 'Helvetica Neue', Arial, sans-serif" font-size="12.5" font-weight="600" fill="#f7768e">▼ 9.9%</text><text x="520.5" y="162" text-anchor="middle" font-family="'Segoe UI', Ubuntu, 'Helvetica Neue', Arial, sans-serif" font-size="19" font-weight="700" fill="#c0caf5">$60,080</text><line x1="621.0" y1="52" x2="621.0" y2="186" stroke="#2a2e45"/><text x="721.5" y="64" text-anchor="middle" font-family="'Segoe UI', Ubuntu, 'Helvetica Neue', Arial, sans-serif" font-size="14.5" font-weight="600" fill="#c0caf5">Gold</text><path d="M639.0,134.0 L639.0,83.3 L646.9,82.0 L654.7,86.8 L662.6,83.2 L670.4,96.0 L678.3,96.1 L686.1,103.1 L694.0,117.1 L701.9,118.8 L709.7,107.3 L717.6,96.9 L725.4,96.6 L733.3,94.0 L741.1,106.4 L749.0,110.3 L756.9,115.1 L764.7,128.0 L772.6,124.3 L780.4,119.8 L788.3,125.0 L796.1,125.0 L804.0,120.9 L804.0,134.0 Z" fill="#f7768e" fill-opacity="0.12"/><polyline points="639.0,83.3 646.9,82.0 654.7,86.8 662.6,83.2 670.4,96.0 678.3,96.1 686.1,103.1 694.0,117.1 701.9,118.8 709.7,107.3 717.6,96.9 725.4,96.6 733.3,94.0 741.1,106.4 749.0,110.3 756.9,115.1 764.7,128.0 772.6,124.3 780.4,119.8 788.3,125.0 796.1,125.0 804.0,120.9" fill="none" stroke="#f7768e" stroke-width="2" stroke-linecap="round" stroke-linejoin="round"/><circle cx="804.0" cy="120.9" r="2.6" fill="#f7768e"/><text x="721.5" y="182" text-anchor="middle" font-family="'Segoe UI', Ubuntu, 'Helvetica Neue', Arial, sans-serif" font-size="12.5" font-weight="600" fill="#f7768e">▼ 9.1%</text><text x="721.5" y="162" text-anchor="middle" font-family="'Segoe UI', Ubuntu, 'Helvetica Neue', Arial, sans-serif" font-size="19" font-weight="700" fill="#c0caf5">$4,067</text></svg>