<svg xmlns="http://www.w3.org/2000/svg" width="840" height="200" viewBox="0 0 840 200" role="img" aria-label="Market prices over the past month"><rect x="0.5" y="0.5" width="839" height="199" rx="12" fill="#1a1b27" stroke="#2a2e45"/><text x="18" y="26" font-family="'Segoe UI', Ubuntu, 'Helvetica Neue', Arial, sans-serif" font-size="11" letter-spacing="1.5" fill="#565f89">MARKETS · PAST MONTH</text><text x="822" y="26" text-anchor="end" font-family="'Segoe UI', Ubuntu, 'Helvetica Neue', Arial, sans-serif" font-size="11" fill="#565f89">updated Jun 27, 2026 · 18:01 UTC</text><line x1="18" y1="38" x2="822" y2="38" stroke="#2a2e45"/><text x="118.5" y="64" text-anchor="middle" font-family="'Segoe UI', Ubuntu, 'Helvetica Neue', Arial, sans-serif" font-size="14.5" font-weight="600" fill="#c0caf5">S&amp;P 500</text><path d="M36.0,134.0 L36.0,94.0 L43.9,88.2 L51.7,86.0 L59.6,83.3 L67.4,82.0 L75.3,89.5 L83.1,85.4 L91.0,112.3 L98.9,109.4 L106.7,111.9 L114.6,128.0 L122.4,110.9 L130.3,105.9 L138.1,89.4 L146.0,95.2 L153.9,107.5 L161.7,96.7 L169.6,100.4 L177.4,114.8 L185.3,115.8 L193.1,115.9 L201.0,116.3 L201.0,134.0 Z" fill="#f7768e" fill-opacity="0.12"/><polyline points="36.0,94.0 43.9,88.2 51.7,86.0 59.6,83.3 67.4,82.0 75.3,89.5 83.1,85.4 91.0,112.3 98.9,109.4 106.7,111.9 114.6,128.0 122.4,110.9 130.3,105.9 138.1,89.4 146.0,95.2 153.9,107.5 161.7,96.7 169.6,100.4 177.4,114.8 185.3,115.8 193.1,115.9 201.0,116.3" fill="none" stroke="#f7768e" stroke-width="2" stroke-linecap="round" stroke-linejoin="round"/><circle cx="201.0" cy="116.3" r="2.6" fill="#f7768e"/><text x="118.5" y="182" text-anchor="middle" font-family="'Segoe UI', Ubuntu, 'Helvetica Neue', Arial, sans-serif" font-size="12.5" font-weight="600" fill="#f7768e">▼ 2.2%</text><text x="118.5" y="162" text-anchor="middle" font-family="'Segoe UI', Ubuntu, 'Helvetica Neue', Arial, sans-serif" font-size="19" font-weight="700" fill="#c0caf5">7,354</text><line x1="219.0" y1="52" x2="219.0" y2="186" stroke="#2a2e45"/><text x="319.5" y="64" text-anchor="middle" font-family="'Segoe UI', Ubuntu, 'Helvetica Neue', Arial, sans-serif" font-size="14.5" font-weight="600" fill="#c0caf5">NASDAQ</text><path d="M237.0,134.0 L237.0,92.0 L244.9,86.2 L252.7,84.9 L260.6,82.2 L268.4,82.0 L276.3,87.7 L284.1,88.3 L292.0,115.1 L299.9,109.8 L307.7,115.8 L315.6,128.0 L323.4,112.7 L331.3,110.8 L339.1,91.8 L347.0,99.2 L354.9,107.6 L362.7,95.8 L370.6,104.2 L378.4,118.0 L386.3,120.7 L394.1,123.5 L402.0,124.9 L402.0,134.0 Z" fill="#f7768e" fill-opacity="0.12"/><polyline points="237.0,92.0 244.9,86.2 252.7,84.9 260.6,82.2 268.4,82.0 276.3,87.7 284.1,88.3 292.0,115.1 299.9,109.8 307.7,115.8 315.6,128.0 323.4,112.7 331.3,110.8 339.1,91.8 347.0,99.2 354.9,107.6 362.7,95.8 370.6,104.2 378.4,118.0 386.3,120.7 394.1,123.5 402.0,124.9" fill="none" stroke="#f7768e" stroke-width="2" stroke-linecap="round" stroke-linejoin="round"/><circle cx="402.0" cy="124.9" r="2.6" fill="#f7768e"/><text x="319.5" y="182" text-anchor="middle" font-family="'Segoe UI', Ubuntu, 'Helvetica Neue', Arial, sans-serif" font-size="12.5" font-weight="600" fill="#f7768e">▼ 5.2%</text><text x="319.5" y="162" text-anchor="middle" font-family="'Segoe UI', Ubuntu, 'Helvetica Neue', Arial, sans-serif" font-size="19" font-weight="700" fill="#c0caf5">25,298</text><line x1="420.0" y1="52" x2="420.0" y2="186" stroke="#2a2e45"/><text x="520.5" y="64" text-anchor="middle" font-family="'Segoe UI', Ubuntu, 'Helvetica Neue', Arial, sans-serif" font-size="14.5" font-weight="600" fill="#c0caf5">Bitcoin</text><path d="M438.0,134.0 L438.0,82.0 L443.3,84.5 L448.6,85.1 L454.0,83.9 L459.3,84.4 L464.6,91.5 L469.9,106.0 L475.3,114.5 L480.6,115.2 L485.9,124.2 L491.2,124.4 L496.5,116.9 L501.9,117.4 L507.2,122.0 L512.5,122.6 L517.8,115.9 L523.2,116.0 L528.5,113.2 L533.8,109.2 L539.1,107.3 L544.5,109.5 L549.8,113.2 L555.1,118.0 L560.4,116.0 L565.7,113.8 L571.1,116.9 L576.4,114.7 L581.7,118.7 L587.0,124.0 L592.4,128.0 L597.7,127.1 L603.0,125.9 L603.0,134.0 Z" fill="#f7768e" fill-opacity="0.12"/><polyline points="438.0,82.0 443.3,84.5 448.6,85.1 454.0,83.9 459.3,84.4 464.6,91.5 469.9,106.0 475.3,114.5 480.6,115.2 485.9,124.2 491.2,124.4 496.5,116.9 501.9,117.4 507.2,122.0 512.5,122.6 517.8,115.9 523.2,116.0 528.5,113.2 533.8,109.2 539.1,107.3 544.5,109.5 549.8,113.2 555.1,118.0 560.4,116.0 565.7,113.8 571.1,116.9 576.4,114.7 581.7,118.7 587.0,124.0 592.4,128.0 597.7,127.1 603.0,125.9" fill="none" stroke="#f7768e" stroke-width="2" stroke-linecap="round" stroke-linejoin="round"/><circle cx="603.0" cy="125.9" r="2.6" fill="#f7768e"/><text x="520.5" y="182" text-anchor="middle" font-family="'Segoe UI', Ubuntu, 'Helvetica Neue', Arial, sans-serif" font-size="12.5" font-weight="600" fill="#f7768e">▼ 18.8%</text><text x="520.5" y="162" text-anchor="middle" font-family="'Segoe UI', Ubuntu, 'Helvetica Neue', Arial, sans-serif" font-size="19" font-weight="700" fill="#c0caf5">$60,398</text><line x1="621.0" y1="52" x2="621.0" y2="186" stroke="#2a2e45"/><text x="721.5" y="64" text-anchor="middle" font-family="'Segoe UI', Ubuntu, 'Helvetica Neue', Arial, sans-serif" font-size="14.5" font-weight="600" fill="#c0caf5">Gold</text><path d="M639.0,134.0 L639.0,91.1 L646.9,86.9 L654.7,82.0 L662.6,88.9 L670.4,87.8 L678.3,92.0 L686.1,88.8 L694.0,100.0 L701.9,100.1 L709.7,106.2 L717.6,118.5 L725.4,119.9 L733.3,109.9 L741.1,100.8 L749.0,100.5 L756.9,98.3 L764.7,109.1 L772.6,112.5 L780.4,116.7 L788.3,128.0 L796.1,124.8 L804.0,119.4 L804.0,134.0 Z" fill="#f7768e" fill-opacity="0.12"/><polyline points="639.0,91.1 646.9,86.9 654.7,82.0 662.6,88.9 670.4,87.8 678.3,92.0 686.1,88.8 694.0,100.0 701.9,100.1 709.7,106.2 717.6,118.5 725.4,119.9 733.3,109.9 741.1,100.8 749.0,100.5 756.9,98.3 764.7,109.1 772.6,112.5 780.4,116.7 788.3,128.0 796.1,124.8 804.0,119.4" fill="none" stroke="#f7768e" stroke-width="2" stroke-linecap="round" stroke-linejoin="round"/><circle cx="804.0" cy="119.4" r="2.6" fill="#f7768e"/><text x="721.5" y="182" text-anchor="middle" font-family="'Segoe UI', Ubuntu, 'Helvetica Neue', Arial, sans-serif" font-size="12.5" font-weight="600" fill="#f7768e">▼ 7.9%</text><text x="721.5" y="162" text-anchor="middle" font-family="'Segoe UI', Ubuntu, 'Helvetica Neue', Arial, sans-serif" font-size="19" font-weight="700" fill="#c0caf5">$4,096</text></svg>